<svg width="150" height="36" viewBox="0 0 150 36" fill="none" xmlns="http://www.w3.org/2000/svg">
<path d="M8.91887 3.36409L12.7996 17.7749V1.93135C13.1074 1.8599 13.4184 1.79698 13.7324 1.74285V17.7764L18.0973 1.56789C18.4118 1.59622 18.7239 1.63329 19.0331 1.67886L14.6331 18.0179L23.3792 2.94491C23.6641 3.07245 23.9448 3.20777 24.2209 3.35058L15.4421 18.4798L27.9749 6.00969C28.2009 6.2223 28.4208 6.44116 28.6345 6.666L16.0998 19.138L31.3069 10.4021C31.4504 10.6768 31.5864 10.9561 31.7145 11.2396L16.5695 19.9399L32.9862 15.563C33.032 15.8707 33.0692 16.1812 33.0977 16.4942L16.808 20.8371L32.9216 20.8371C32.8672 21.1496 32.8039 21.4591 32.7321 21.7653L16.8055 21.7653L31.2915 25.6274C31.1427 25.9108 30.9859 26.1894 30.8214 26.4629L16.5682 22.6629L28.4729 29.5017C28.2475 29.7323 28.0154 29.9564 27.7769 30.1736L16.1028 23.4672L24.9364 32.2567C24.657 32.4191 24.3724 32.5737 24.0829 32.72L15.4423 24.1226L21.1037 33.8794C20.7937 33.9666 20.4801 34.0451 20.163 34.1145L14.6336 24.5852L17.2996 34.4849C17.0619 34.4949 16.823 34.5 16.5829 34.5C16.501 34.5 16.4191 34.4994 16.3375 34.4982L13.7324 24.8247V34.2572C13.4184 34.203 13.1073 34.1401 12.7996 34.0687V24.8262L10.5027 33.3556C10.2097 33.2407 9.92083 33.1177 9.63629 32.9869L11.8983 24.5873L7.65207 31.9052C7.38919 31.7376 7.13137 31.563 6.8789 31.3814L11.0917 24.121L5.19195 29.9913C4.96598 29.7787 4.74602 29.5599 4.53234 29.3351L10.4303 23.4666L3.13552 27.6572C2.95299 27.406 2.7774 27.1495 2.60902 26.8879L9.96714 22.661L1.52111 24.9128C1.38965 24.6297 1.26601 24.3422 1.15047 24.0507L9.72273 21.7653L0.433725 21.7653C0.361899 21.4591 0.298641 21.1496 0.244217 20.8371L9.72022 20.8371L0.00180728 18.2461C0.000603817 18.1642 0 18.0822 0 18C0 17.7617 0.00507625 17.5246 0.015127 17.2888L9.96578 19.9417L0.387152 14.4392C0.456898 14.1237 0.535719 13.8116 0.623327 13.5031L10.4332 19.1386L1.78895 10.5375C1.93601 10.2495 2.09133 9.96628 2.25458 9.68826L11.0918 18.4813L4.34907 6.86092C4.56741 6.62365 4.79262 6.39275 5.0244 6.16853L11.8988 18.0159L8.07911 3.83174C8.35397 3.66806 8.63399 3.51208 8.91887 3.36409Z" fill="#0796D3"/>
<path d="M43.604 25.4319H47.213V19.1949H54.41V16.0239H47.213V13.3569H54.8744V10.2069H43.604V25.4319Z" fill="#101828"/>
<path d="M61.0083 16.4859C62.3802 16.4859 63.4777 17.3259 63.4777 19.7409C63.4777 22.1139 62.4224 23.0169 61.0083 23.0169C59.5942 23.0169 58.539 22.1139 58.539 19.7409C58.539 17.3259 59.6365 16.4859 61.0083 16.4859ZM61.0083 13.7979C57.8636 13.7979 54.9932 15.6459 54.9932 19.7409C54.9932 23.8359 57.8636 25.7049 61.0083 25.7049C64.153 25.7049 67.0234 23.8359 67.0234 19.7409C67.0234 15.6459 64.153 13.7979 61.0083 13.7979Z" fill="#101828"/>
<path d="M73.7104 13.7979C70.2702 13.7979 67.9064 16.1289 67.9064 19.7199C67.9064 23.3109 69.9747 25.7049 73.7104 25.7049C75.9898 25.7049 78.7124 24.6339 79.4933 21.2739H76.243C75.9898 22.3449 75.2089 23.0169 73.9214 23.0169C72.6762 23.0169 71.4521 22.1979 71.4521 19.7409C71.4521 17.3259 72.6762 16.4859 73.9214 16.4859C74.9556 16.4859 75.7787 16.9479 76.0953 18.2709H79.3456C78.6702 14.8689 76.0742 13.7979 73.7104 13.7979Z" fill="#101828"/>
<path d="M87.676 18.3759C83.2649 18.7119 80.1202 19.6149 80.1202 22.3869C80.1202 24.4449 81.8931 25.7049 84.0458 25.7049C85.6709 25.7049 87.0217 25.2639 87.8659 24.0669L87.9081 25.4319H91.3272C91.1584 24.7179 91.074 23.3949 91.074 22.1559V20.9799L91.1162 18.5229C91.1795 15.0999 89.3222 13.7769 86.0508 13.7769C82.674 13.7769 80.6478 15.6669 80.479 17.7879H83.7292C83.877 16.6959 84.6368 16.1289 85.7554 16.1289C87.0217 16.1289 87.676 16.5909 87.676 17.9349V18.3759ZM87.7604 20.6859C87.7604 22.7649 86.7051 23.3529 85.3122 23.3529C84.4046 23.3529 83.7081 22.8699 83.7081 22.1349C83.7081 20.9169 85.3333 20.6439 87.7604 20.4129V20.6859Z" fill="#101828"/>
<path d="M96.3858 10.2069H92.9034V25.4319H96.3858V10.2069Z" fill="#101828"/>
<path d="M98.6062 10.2069V25.4319H102.215V20.1609H104.495C108.462 20.1609 111.438 19.1739 111.438 15.1629C111.438 11.1729 108.462 10.2069 104.495 10.2069H98.6062ZM104.6 13.2309C106.289 13.2309 107.618 13.5669 107.618 15.1629C107.618 16.7589 106.289 17.1369 104.6 17.1369H102.215V13.2309H104.6Z" fill="#101828"/>
<path d="M117.556 16.4859C118.928 16.4859 120.026 17.3259 120.026 19.7409C120.026 22.1139 118.97 23.0169 117.556 23.0169C116.142 23.0169 115.087 22.1139 115.087 19.7409C115.087 17.3259 116.184 16.4859 117.556 16.4859ZM117.556 13.7979C114.412 13.7979 111.541 15.6459 111.541 19.7409C111.541 23.8359 114.412 25.7049 117.556 25.7049C120.701 25.7049 123.571 23.8359 123.571 19.7409C123.571 15.6459 120.701 13.7979 117.556 13.7979Z" fill="#101828"/>
<path d="M124.965 14.1339V25.4319H128.468V14.1339H124.965ZM124.965 10.2069V12.9789H128.447V10.2069H124.965Z" fill="#101828"/>
<path d="M134.023 14.1339H130.54V25.4319H134.023V19.6359C134.023 17.5359 134.635 16.5699 136.133 16.5699C137.822 16.5699 137.885 17.8929 137.885 19.5099V25.4319H141.368V18.6489C141.368 15.5829 140.46 13.8819 137.548 13.8819C135.754 13.8819 134.529 14.7849 134.023 15.6249V14.1339Z" fill="#101828"/>
<path d="M143.776 14.1339H141.982V16.5909H143.776V22.2609C143.776 24.8859 144.725 25.4319 147.532 25.4319H149.748V22.9329H148.757C147.596 22.9329 147.258 22.7229 147.258 21.6519V16.5909H149.748V14.1339H147.258V11.0469H143.776V14.1339Z" fill="#101828"/>
</svg>
